<svg width="89" height="34" viewBox="0 0 89 34" fill="none" xmlns="http://www.w3.org/2000/svg">
<path d="M8.96388 33.801C7.11101 33.801 5.5127 33.2418 4.16896 32.4239C2.83355 31.5976 1.80279 30.4458 1.07667 28.9686C0.358889 27.4829 0 24.7552 0 22.7855C0 20.8158 0.358889 19.0798 1.07667 17.5775C1.80279 16.0668 2.81269 14.89 4.10636 14.047C5.40838 13.1957 6.92739 12.77 8.66341 12.77C9.66497 12.77 10.654 12.9369 11.6305 13.2708C12.607 13.6046 13.4959 14.1472 14.2971 14.8983C15.0984 15.6411 15.7369 16.626 16.2126 17.8529C16.6883 19.0798 16.9262 20.5905 16.9262 22.3849V23.6368H2.10326V21.0829H13.9216C13.9216 19.9979 13.7046 19.0297 13.2706 18.1784C12.8449 17.3271 12.2356 16.6552 11.4427 16.1628C10.6582 15.6703 9.73174 15.4241 8.66341 15.4241C7.48659 15.4241 6.46835 15.7162 5.60869 16.3005C4.75737 16.8764 4.10219 17.6275 3.64314 18.554C3.1841 19.4804 2.95458 20.4736 2.95458 21.5336V23.2362C2.95458 24.6885 3.20496 26.9195 3.70574 27.9294C4.21486 28.931 4.92012 29.6947 5.82152 30.2205C6.72291 30.738 7.77037 30.9967 8.96388 30.9967C9.74008 30.9967 11.9685 30.9967 11.9685 30.9967H17.4771L21.0576 31.0468L18.8542 33.801H8.96388Z" fill="#1E1E1E"/>
<path d="M21.7336 7.41014H24.6882V28.0421C24.6882 29.2273 24.4837 30.2538 24.0747 31.1219C23.6741 31.9899 23.0648 32.6617 22.2469 33.1375C21.4373 33.6132 20.3648 33.801 19.1296 33.801C19.0294 33.801 18.9543 33.801 18.8542 33.801C18.754 33.801 18.6789 33.801 18.5787 33.801V31.0968C18.6789 31.0968 18.7707 31.0968 18.8542 31.0968C18.9376 31.0968 19.0294 31.0968 19.1296 31.0968C20.031 31.0968 20.6903 30.8297 21.1077 30.2956C21.525 29.7698 21.7336 29.0186 21.7336 28.0421V7.41014ZM23.1859 4.20518C22.61 4.20518 22.1134 4.00904 21.6961 3.61677C21.2871 3.22449 21.0826 2.75293 21.0826 2.20208C21.0826 1.65122 21.2871 1.17966 21.6961 0.787385C22.1134 0.395111 22.61 0.198975 23.1859 0.198975C23.7618 0.198975 24.2542 0.395111 24.6632 0.787385C25.0805 1.17966 25.2891 1.65122 25.2891 2.20208C25.2891 2.75293 25.0805 3.22449 24.6632 3.61677C24.2542 4.00904 23.7618 4.20518 23.1859 4.20518Z" fill="#A77575"/>
<path d="M35.7292 26L31.7692 13.028L33.8932 13.04L36.7852 22.52L39.7012 13.04H41.5852L44.4892 22.52L47.3932 13.04H49.5052L45.5452 26H43.7692L40.6372 16.148L37.5052 26H35.7292ZM55.0436 26.36C53.7556 26.36 52.6436 26.068 51.7076 25.484C50.7796 24.9 50.0636 24.092 49.5596 23.06C49.0556 22.028 48.8036 20.844 48.8036 19.508C48.8036 18.148 49.0596 16.956 49.5716 15.932C50.0836 14.908 50.8076 14.112 51.7436 13.544C52.6796 12.968 53.7796 12.68 55.0436 12.68C56.3396 12.68 57.4556 12.972 58.3916 13.556C59.3276 14.132 60.0436 14.936 60.5396 15.968C61.0436 16.992 61.2956 18.172 61.2956 19.508C61.2956 20.86 61.0436 22.052 60.5396 23.084C60.0356 24.108 59.3156 24.912 58.3796 25.496C57.4436 26.072 56.3316 26.36 55.0436 26.36ZM55.0436 24.332C56.3876 24.332 57.3876 23.884 58.0436 22.988C58.6996 22.092 59.0276 20.932 59.0276 19.508C59.0276 18.044 58.6956 16.88 58.0316 16.016C57.3676 15.144 56.3716 14.708 55.0436 14.708C54.1396 14.708 53.3956 14.912 52.8116 15.32C52.2276 15.728 51.7916 16.292 51.5036 17.012C51.2156 17.732 51.0716 18.564 51.0716 19.508C51.0716 20.964 51.4076 22.132 52.0796 23.012C52.7516 23.892 53.7396 24.332 55.0436 24.332ZM67.7776 26.36C66.4896 26.36 65.3776 26.068 64.4416 25.484C63.5136 24.9 62.7976 24.092 62.2936 23.06C61.7896 22.028 61.5376 20.844 61.5376 19.508C61.5376 18.148 61.7936 16.956 62.3056 15.932C62.8176 14.908 63.5416 14.112 64.4776 13.544C65.4136 12.968 66.5136 12.68 67.7776 12.68C69.0736 12.68 70.1896 12.972 71.1256 13.556C72.0616 14.132 72.7776 14.936 73.2736 15.968C73.7776 16.992 74.0296 18.172 74.0296 19.508C74.0296 20.86 73.7776 22.052 73.2736 23.084C72.7696 24.108 72.0496 24.912 71.1136 25.496C70.1776 26.072 69.0656 26.36 67.7776 26.36ZM67.7776 24.332C69.1216 24.332 70.1216 23.884 70.7776 22.988C71.4336 22.092 71.7616 20.932 71.7616 19.508C71.7616 18.044 71.4296 16.88 70.7656 16.016C70.1016 15.144 69.1056 14.708 67.7776 14.708C66.8736 14.708 66.1296 14.912 65.5456 15.32C64.9616 15.728 64.5256 16.292 64.2376 17.012C63.9496 17.732 63.8056 18.564 63.8056 19.508C63.8056 20.964 64.1416 22.132 64.8136 23.012C65.4856 23.892 66.4736 24.332 67.7776 24.332ZM80.0797 26.36C78.8717 26.36 77.8357 26.06 76.9717 25.46C76.1077 24.852 75.4397 24.032 74.9677 23C74.5037 21.968 74.2717 20.804 74.2717 19.508C74.2717 18.212 74.5037 17.048 74.9677 16.016C75.4397 14.984 76.1077 14.172 76.9717 13.58C77.8357 12.98 78.8677 12.68 80.0677 12.68C81.2917 12.68 82.3197 12.976 83.1517 13.568C83.9837 14.16 84.6117 14.972 85.0357 16.004C85.4677 17.036 85.6837 18.204 85.6837 19.508C85.6837 20.796 85.4677 21.96 85.0357 23C84.6117 24.032 83.9837 24.852 83.1517 25.46C82.3197 26.06 81.2957 26.36 80.0797 26.36ZM80.3437 24.404C81.2157 24.404 81.9317 24.196 82.4917 23.78C83.0517 23.356 83.4637 22.776 83.7277 22.04C83.9997 21.296 84.1357 20.452 84.1357 19.508C84.1357 18.548 83.9997 17.704 83.7277 16.976C83.4637 16.24 83.0557 15.668 82.5037 15.26C81.9517 14.844 81.2517 14.636 80.4037 14.636C79.5237 14.636 78.7957 14.852 78.2197 15.284C77.6517 15.716 77.2277 16.3 76.9477 17.036C76.6757 17.772 76.5397 18.596 76.5397 19.508C76.5397 20.428 76.6797 21.26 76.9597 22.004C77.2397 22.74 77.6597 23.324 78.2197 23.756C78.7877 24.188 79.4957 24.404 80.3437 24.404ZM84.1357 26V16.46H83.8957V8.72H86.0437V26H84.1357Z" fill="#1E1E1E"/>
</svg>
