<svg width="89" height="34" viewBox="0 0 89 34" fill="none" xmlns="http://www.w3.org/2000/svg">
<path d="M8.96388 33.801C7.11101 33.801 5.5127 33.2418 4.16896 32.4239C2.83355 31.5976 1.80279 30.4458 1.07667 28.9686C0.358889 27.4829 0 24.7552 0 22.7855C0 20.8158 0.358889 19.0798 1.07667 17.5775C1.80279 16.0668 2.81269 14.89 4.10636 14.047C5.40838 13.1957 6.92739 12.77 8.66341 12.77C9.66497 12.77 10.654 12.9369 11.6305 13.2708C12.607 13.6046 13.4959 14.1472 14.2971 14.8983C15.0984 15.6411 15.7369 16.626 16.2126 17.8529C16.6883 19.0798 16.9262 20.5905 16.9262 22.3849V23.6368H2.10326V21.0829H13.9216C13.9216 19.9979 13.7046 19.0297 13.2706 18.1784C12.8449 17.3271 12.2356 16.6552 11.4427 16.1628C10.6582 15.6703 9.73174 15.4241 8.66341 15.4241C7.48659 15.4241 6.46835 15.7162 5.60869 16.3005C4.75737 16.8764 4.10219 17.6275 3.64314 18.554C3.1841 19.4804 2.95458 20.4736 2.95458 21.5336V23.2362C2.95458 24.6885 3.20496 26.9195 3.70574 27.9294C4.21486 28.931 4.92012 29.6947 5.82152 30.2205C6.72291 30.738 7.77037 30.9967 8.96388 30.9967C9.74008 30.9967 11.9685 30.9967 11.9685 30.9967H17.4771L21.0576 31.0468L18.8542 33.801H8.96388Z" fill="#1E1E1E"/>
<path d="M21.7337 7.41014H24.6883V28.0421C24.6883 29.2273 24.4838 30.2538 24.0749 31.1219C23.6742 31.9899 23.065 32.6617 22.247 33.1375C21.4375 33.6132 20.365 33.801 19.1297 33.801C19.0296 33.801 18.9544 33.801 18.8543 33.801C18.7541 33.801 18.679 33.801 18.5789 33.801V31.0968C18.679 31.0968 18.7708 31.0968 18.8543 31.0968C18.9377 31.0968 19.0296 31.0968 19.1297 31.0968C20.0311 31.0968 20.6905 30.8297 21.1078 30.2956C21.5251 29.7698 21.7337 29.0186 21.7337 28.0421V7.41014ZM23.186 4.20518C22.6101 4.20518 22.1135 4.00904 21.6962 3.61677C21.2872 3.22449 21.0827 2.75293 21.0827 2.20208C21.0827 1.65122 21.2872 1.17966 21.6962 0.787385C22.1135 0.395111 22.6101 0.198975 23.186 0.198975C23.7619 0.198975 24.2543 0.395111 24.6633 0.787385C25.0806 1.17966 25.2892 1.65122 25.2892 2.20208C25.2892 2.75293 25.0806 3.22449 24.6633 3.61677C24.2543 4.00904 23.7619 4.20518 23.186 4.20518Z" fill="#FF8000"/>
<path d="M35.7291 26L31.7691 13.028L33.8931 13.04L36.7851 22.52L39.7011 13.04H41.5851L44.4891 22.52L47.3931 13.04H49.5051L45.5451 26H43.7691L40.6371 16.148L37.5051 26H35.7291ZM55.0434 26.36C53.7554 26.36 52.6434 26.068 51.7074 25.484C50.7794 24.9 50.0634 24.092 49.5594 23.06C49.0554 22.028 48.8034 20.844 48.8034 19.508C48.8034 18.148 49.0594 16.956 49.5714 15.932C50.0834 14.908 50.8074 14.112 51.7434 13.544C52.6794 12.968 53.7794 12.68 55.0434 12.68C56.3394 12.68 57.4554 12.972 58.3914 13.556C59.3274 14.132 60.0434 14.936 60.5394 15.968C61.0434 16.992 61.2954 18.172 61.2954 19.508C61.2954 20.86 61.0434 22.052 60.5394 23.084C60.0354 24.108 59.3154 24.912 58.3794 25.496C57.4434 26.072 56.3314 26.36 55.0434 26.36ZM55.0434 24.332C56.3874 24.332 57.3874 23.884 58.0434 22.988C58.6994 22.092 59.0274 20.932 59.0274 19.508C59.0274 18.044 58.6954 16.88 58.0314 16.016C57.3674 15.144 56.3714 14.708 55.0434 14.708C54.1394 14.708 53.3954 14.912 52.8114 15.32C52.2274 15.728 51.7914 16.292 51.5034 17.012C51.2154 17.732 51.0714 18.564 51.0714 19.508C51.0714 20.964 51.4074 22.132 52.0794 23.012C52.7514 23.892 53.7394 24.332 55.0434 24.332ZM67.7775 26.36C66.4895 26.36 65.3775 26.068 64.4415 25.484C63.5135 24.9 62.7975 24.092 62.2935 23.06C61.7895 22.028 61.5375 20.844 61.5375 19.508C61.5375 18.148 61.7935 16.956 62.3055 15.932C62.8175 14.908 63.5415 14.112 64.4775 13.544C65.4135 12.968 66.5135 12.68 67.7775 12.68C69.0735 12.68 70.1895 12.972 71.1255 13.556C72.0615 14.132 72.7775 14.936 73.2735 15.968C73.7775 16.992 74.0295 18.172 74.0295 19.508C74.0295 20.86 73.7775 22.052 73.2735 23.084C72.7695 24.108 72.0495 24.912 71.1135 25.496C70.1775 26.072 69.0655 26.36 67.7775 26.36ZM67.7775 24.332C69.1215 24.332 70.1215 23.884 70.7775 22.988C71.4335 22.092 71.7615 20.932 71.7615 19.508C71.7615 18.044 71.4295 16.88 70.7655 16.016C70.1015 15.144 69.1055 14.708 67.7775 14.708C66.8735 14.708 66.1295 14.912 65.5455 15.32C64.9615 15.728 64.5255 16.292 64.2375 17.012C63.9495 17.732 63.8055 18.564 63.8055 19.508C63.8055 20.964 64.1415 22.132 64.8135 23.012C65.4855 23.892 66.4735 24.332 67.7775 24.332ZM80.0796 26.36C78.8716 26.36 77.8356 26.06 76.9716 25.46C76.1076 24.852 75.4396 24.032 74.9676 23C74.5036 21.968 74.2716 20.804 74.2716 19.508C74.2716 18.212 74.5036 17.048 74.9676 16.016C75.4396 14.984 76.1076 14.172 76.9716 13.58C77.8356 12.98 78.8676 12.68 80.0676 12.68C81.2916 12.68 82.3196 12.976 83.1516 13.568C83.9836 14.16 84.6116 14.972 85.0356 16.004C85.4676 17.036 85.6836 18.204 85.6836 19.508C85.6836 20.796 85.4676 21.96 85.0356 23C84.6116 24.032 83.9836 24.852 83.1516 25.46C82.3196 26.06 81.2956 26.36 80.0796 26.36ZM80.3436 24.404C81.2156 24.404 81.9316 24.196 82.4916 23.78C83.0516 23.356 83.4636 22.776 83.7276 22.04C83.9996 21.296 84.1356 20.452 84.1356 19.508C84.1356 18.548 83.9996 17.704 83.7276 16.976C83.4636 16.24 83.0556 15.668 82.5036 15.26C81.9516 14.844 81.2516 14.636 80.4036 14.636C79.5236 14.636 78.7956 14.852 78.2196 15.284C77.6516 15.716 77.2276 16.3 76.9476 17.036C76.6756 17.772 76.5396 18.596 76.5396 19.508C76.5396 20.428 76.6796 21.26 76.9596 22.004C77.2396 22.74 77.6596 23.324 78.2196 23.756C78.7876 24.188 79.4956 24.404 80.3436 24.404ZM84.1356 26V16.46H83.8956V8.72H86.0436V26H84.1356Z" fill="#1E1E1E"/>
</svg>
